<svg xmlns="http://www.w3.org/2000/svg" viewBox="0 0 100 100">
  <defs>
    <linearGradient id="dark" x1="0%" y1="0%" x2="100%" y2="100%">
      <stop offset="0%" style="stop-color:#1a1a1a"/>
      <stop offset="50%" style="stop-color:#0a0a0a"/>
      <stop offset="100%" style="stop-color:#000000"/>
    </linearGradient>
  </defs>
  <rect width="100" height="100" rx="20" fill="url(#dark)"/>
  <!-- Pixel art waves - centered: y spans 15-85 in 100-unit viewBox -->
  <g fill="white">
    <!-- Top wave -->
    <rect x="12" y="15" width="10" height="10"/>
    <rect x="22" y="25" width="10" height="10"/>
    <rect x="32" y="15" width="10" height="10"/>
    <rect x="42" y="25" width="10" height="10"/>
    <rect x="52" y="15" width="10" height="10"/>
    <rect x="62" y="25" width="10" height="10"/>
    <rect x="72" y="15" width="10" height="10"/>
    <!-- Middle wave -->
    <rect x="12" y="40" width="10" height="10"/>
    <rect x="22" y="50" width="10" height="10"/>
    <rect x="32" y="40" width="10" height="10"/>
    <rect x="42" y="50" width="10" height="10"/>
    <rect x="52" y="40" width="10" height="10"/>
    <rect x="62" y="50" width="10" height="10"/>
    <rect x="72" y="40" width="10" height="10"/>
    <!-- Bottom wave -->
    <rect x="12" y="65" width="10" height="10"/>
    <rect x="22" y="75" width="10" height="10"/>
    <rect x="32" y="65" width="10" height="10"/>
    <rect x="42" y="75" width="10" height="10"/>
    <rect x="52" y="65" width="10" height="10"/>
    <rect x="62" y="75" width="10" height="10"/>
    <rect x="72" y="65" width="10" height="10"/>
  </g>
</svg>
