<svg xmlns="http://www.w3.org/2000/svg" viewBox="0 0 100 100">
  <defs>
    <linearGradient id="dark" x1="0%" y1="0%" x2="100%" y2="100%">
      <stop offset="0%" style="stop-color:#1a1a1a"/>
      <stop offset="50%" style="stop-color:#0a0a0a"/>
      <stop offset="100%" style="stop-color:#000000"/>
    </linearGradient>
  </defs>
  <rect width="100" height="100" rx="20" fill="url(#dark)"/>
  <!-- Pixel art waves - 8x8 squares, centered, 6px gap between rows -->
  <g fill="white">
    <!-- Top wave (y=20 high, y=28 low) -->
    <rect x="18" y="20" width="8" height="8"/>
    <rect x="26" y="28" width="8" height="8"/>
    <rect x="34" y="20" width="8" height="8"/>
    <rect x="42" y="28" width="8" height="8"/>
    <rect x="50" y="20" width="8" height="8"/>
    <rect x="58" y="28" width="8" height="8"/>
    <rect x="66" y="20" width="8" height="8"/>
    <rect x="74" y="28" width="8" height="8"/>
    <!-- Middle wave (y=42 high, y=50 low) - 6px gap -->
    <rect x="18" y="42" width="8" height="8"/>
    <rect x="26" y="50" width="8" height="8"/>
    <rect x="34" y="42" width="8" height="8"/>
    <rect x="42" y="50" width="8" height="8"/>
    <rect x="50" y="42" width="8" height="8"/>
    <rect x="58" y="50" width="8" height="8"/>
    <rect x="66" y="42" width="8" height="8"/>
    <rect x="74" y="50" width="8" height="8"/>
    <!-- Bottom wave (y=64 high, y=72 low) - 6px gap -->
    <rect x="18" y="64" width="8" height="8"/>
    <rect x="26" y="72" width="8" height="8"/>
    <rect x="34" y="64" width="8" height="8"/>
    <rect x="42" y="72" width="8" height="8"/>
    <rect x="50" y="64" width="8" height="8"/>
    <rect x="58" y="72" width="8" height="8"/>
    <rect x="66" y="64" width="8" height="8"/>
    <rect x="74" y="72" width="8" height="8"/>
  </g>
</svg>
