<svg xmlns="http://www.w3.org/2000/svg" viewBox="0 0 100 100">
  <defs>
    <linearGradient id="dark" x1="0%" y1="0%" x2="100%" y2="100%">
      <stop offset="0%" style="stop-color:#1a1a1a"/>
      <stop offset="50%" style="stop-color:#0a0a0a"/>
      <stop offset="100%" style="stop-color:#000000"/>
    </linearGradient>
  </defs>
  <rect width="100" height="100" rx="20" fill="url(#dark)"/>
  <!-- Pixel art waves - 8 squares per row, centered -->
  <g fill="white">
    <!-- Top wave: high, low, high, low, high, low, high, low -->
    <rect x="10" y="15" width="10" height="10"/>
    <rect x="20" y="25" width="10" height="10"/>
    <rect x="30" y="15" width="10" height="10"/>
    <rect x="40" y="25" width="10" height="10"/>
    <rect x="50" y="15" width="10" height="10"/>
    <rect x="60" y="25" width="10" height="10"/>
    <rect x="70" y="15" width="10" height="10"/>
    <rect x="80" y="25" width="10" height="10"/>
    <!-- Middle wave -->
    <rect x="10" y="40" width="10" height="10"/>
    <rect x="20" y="50" width="10" height="10"/>
    <rect x="30" y="40" width="10" height="10"/>
    <rect x="40" y="50" width="10" height="10"/>
    <rect x="50" y="40" width="10" height="10"/>
    <rect x="60" y="50" width="10" height="10"/>
    <rect x="70" y="40" width="10" height="10"/>
    <rect x="80" y="50" width="10" height="10"/>
    <!-- Bottom wave -->
    <rect x="10" y="65" width="10" height="10"/>
    <rect x="20" y="75" width="10" height="10"/>
    <rect x="30" y="65" width="10" height="10"/>
    <rect x="40" y="75" width="10" height="10"/>
    <rect x="50" y="65" width="10" height="10"/>
    <rect x="60" y="75" width="10" height="10"/>
    <rect x="70" y="65" width="10" height="10"/>
    <rect x="80" y="75" width="10" height="10"/>
  </g>
</svg>
