<svg xmlns="http://www.w3.org/2000/svg" viewBox="0 0 100 100">
  <defs>
    <linearGradient id="dark" x1="0%" y1="0%" x2="100%" y2="100%">
      <stop offset="0%" style="stop-color:#1a1a1a"/>
      <stop offset="50%" style="stop-color:#0a0a0a"/>
      <stop offset="100%" style="stop-color:#000000"/>
    </linearGradient>
  </defs>
  <rect width="100" height="100" rx="20" fill="url(#dark)"/>
  <!-- Pixel art waves -->
  <g fill="white">
    <!-- Top wave -->
    <rect x="12" y="22" width="10" height="10"/>
    <rect x="22" y="32" width="10" height="10"/>
    <rect x="32" y="22" width="10" height="10"/>
    <rect x="42" y="32" width="10" height="10"/>
    <rect x="52" y="22" width="10" height="10"/>
    <rect x="62" y="32" width="10" height="10"/>
    <rect x="72" y="22" width="10" height="10"/>
    <!-- Middle wave -->
    <rect x="12" y="47" width="10" height="10"/>
    <rect x="22" y="57" width="10" height="10"/>
    <rect x="32" y="47" width="10" height="10"/>
    <rect x="42" y="57" width="10" height="10"/>
    <rect x="52" y="47" width="10" height="10"/>
    <rect x="62" y="57" width="10" height="10"/>
    <rect x="72" y="47" width="10" height="10"/>
    <!-- Bottom wave -->
    <rect x="12" y="72" width="10" height="10"/>
    <rect x="22" y="82" width="10" height="10"/>
    <rect x="32" y="72" width="10" height="10"/>
    <rect x="42" y="82" width="10" height="10"/>
    <rect x="52" y="72" width="10" height="10"/>
    <rect x="62" y="82" width="10" height="10"/>
    <rect x="72" y="72" width="10" height="10"/>
  </g>
</svg>
